<mxfile host="app.diagrams.net" agent="Mozilla/5.0 (Windows NT 10.0; Win64; x64) AppleWebKit/537.36 (KHTML, like Gecko) Chrome/134.0.0.0 Safari/537.36" version="26.2.15">
  <diagram name="第 1 页" id="Wq_TIM6omzcKNeRfOFJA">
    <mxGraphModel dx="1426" dy="743" grid="1" gridSize="10" guides="1" tooltips="1" connect="1" arrows="1" fold="1" page="1" pageScale="1" pageWidth="827" pageHeight="1169" math="0" shadow="0">
      <root>
        <mxCell id="0" />
        <mxCell id="1" parent="0" />
        <mxCell id="V0z_fAP5uFbyGeVHPKqV-2" value="WorldManager::GetMe().Start" style="rounded=0;whiteSpace=wrap;html=1;" vertex="1" parent="1">
          <mxGeometry x="480" y="460" width="180" height="60" as="geometry" />
        </mxCell>
        <mxCell id="V0z_fAP5uFbyGeVHPKqV-6" style="edgeStyle=orthogonalEdgeStyle;rounded=0;orthogonalLoop=1;jettySize=auto;html=1;" edge="1" parent="1" source="V0z_fAP5uFbyGeVHPKqV-4" target="V0z_fAP5uFbyGeVHPKqV-5">
          <mxGeometry relative="1" as="geometry" />
        </mxCell>
        <mxCell id="V0z_fAP5uFbyGeVHPKqV-4" value="master" style="ellipse;whiteSpace=wrap;html=1;" vertex="1" parent="1">
          <mxGeometry x="70" y="350" width="120" height="80" as="geometry" />
        </mxCell>
        <mxCell id="V0z_fAP5uFbyGeVHPKqV-8" style="edgeStyle=orthogonalEdgeStyle;rounded=0;orthogonalLoop=1;jettySize=auto;html=1;entryX=0;entryY=0.5;entryDx=0;entryDy=0;" edge="1" parent="1" source="V0z_fAP5uFbyGeVHPKqV-5" target="V0z_fAP5uFbyGeVHPKqV-7">
          <mxGeometry relative="1" as="geometry" />
        </mxCell>
        <mxCell id="V0z_fAP5uFbyGeVHPKqV-10" style="edgeStyle=orthogonalEdgeStyle;rounded=0;orthogonalLoop=1;jettySize=auto;html=1;" edge="1" parent="1" source="V0z_fAP5uFbyGeVHPKqV-5" target="V0z_fAP5uFbyGeVHPKqV-9">
          <mxGeometry relative="1" as="geometry" />
        </mxCell>
        <mxCell id="V0z_fAP5uFbyGeVHPKqV-13" style="edgeStyle=orthogonalEdgeStyle;rounded=0;orthogonalLoop=1;jettySize=auto;html=1;entryX=0;entryY=0.5;entryDx=0;entryDy=0;" edge="1" parent="1" source="V0z_fAP5uFbyGeVHPKqV-5" target="V0z_fAP5uFbyGeVHPKqV-2">
          <mxGeometry relative="1" as="geometry" />
        </mxCell>
        <mxCell id="V0z_fAP5uFbyGeVHPKqV-5" value="&lt;span style=&quot;text-align: left;&quot;&gt;OnStartup&lt;/span&gt;" style="rounded=0;whiteSpace=wrap;html=1;" vertex="1" parent="1">
          <mxGeometry x="260" y="360" width="120" height="60" as="geometry" />
        </mxCell>
        <mxCell id="V0z_fAP5uFbyGeVHPKqV-7" value="InitCfg" style="rounded=0;whiteSpace=wrap;html=1;" vertex="1" parent="1">
          <mxGeometry x="480" y="260" width="120" height="60" as="geometry" />
        </mxCell>
        <mxCell id="V0z_fAP5uFbyGeVHPKqV-12" value="" style="edgeStyle=orthogonalEdgeStyle;rounded=0;orthogonalLoop=1;jettySize=auto;html=1;" edge="1" parent="1" source="V0z_fAP5uFbyGeVHPKqV-9" target="V0z_fAP5uFbyGeVHPKqV-11">
          <mxGeometry relative="1" as="geometry" />
        </mxCell>
        <mxCell id="V0z_fAP5uFbyGeVHPKqV-9" value="Master::OnTick" style="rounded=0;whiteSpace=wrap;html=1;" vertex="1" parent="1">
          <mxGeometry x="480" y="360" width="120" height="60" as="geometry" />
        </mxCell>
        <mxCell id="V0z_fAP5uFbyGeVHPKqV-11" value="OnTimeTick" style="rounded=0;whiteSpace=wrap;html=1;" vertex="1" parent="1">
          <mxGeometry x="660" y="360" width="120" height="60" as="geometry" />
        </mxCell>
      </root>
    </mxGraphModel>
  </diagram>
</mxfile>
